<mxfile host="app.diagrams.net" agent="Mozilla/5.0 (Windows NT 10.0; Win64; x64) AppleWebKit/537.36 (KHTML, like Gecko) Chrome/137.0.0.0 Safari/537.36" version="26.3.0" pages="3">
  <diagram name="new design" id="B1y9Ysk0QPpH11R5DIhR">
    <mxGraphModel dx="3976" dy="1843" grid="1" gridSize="10" guides="1" tooltips="1" connect="1" arrows="1" fold="1" page="1" pageScale="1" pageWidth="850" pageHeight="1100" math="0" shadow="0">
      <root>
        <mxCell id="0" />
        <mxCell id="1" parent="0" />
        <mxCell id="YoEOFFDDh4o3VPwnlARb-1" value="AWS Cloud" style="points=[[0,0],[0.25,0],[0.5,0],[0.75,0],[1,0],[1,0.25],[1,0.5],[1,0.75],[1,1],[0.75,1],[0.5,1],[0.25,1],[0,1],[0,0.75],[0,0.5],[0,0.25]];outlineConnect=0;gradientColor=none;html=1;whiteSpace=wrap;fontSize=12;fontStyle=0;container=1;pointerEvents=0;collapsible=0;recursiveResize=0;shape=mxgraph.aws4.group;grIcon=mxgraph.aws4.group_aws_cloud_alt;strokeColor=#232F3E;fillColor=none;verticalAlign=top;align=left;spacingLeft=30;fontColor=#232F3E;dashed=0;" vertex="1" parent="1">
          <mxGeometry x="-2236" y="-1040" width="924" height="613" as="geometry" />
        </mxCell>
        <mxCell id="YoEOFFDDh4o3VPwnlARb-2" value="File Transfer Platform VPC" style="points=[[0,0],[0.25,0],[0.5,0],[0.75,0],[1,0],[1,0.25],[1,0.5],[1,0.75],[1,1],[0.75,1],[0.5,1],[0.25,1],[0,1],[0,0.75],[0,0.5],[0,0.25]];outlineConnect=0;gradientColor=none;html=1;whiteSpace=wrap;fontSize=12;fontStyle=0;container=1;pointerEvents=0;collapsible=0;recursiveResize=0;shape=mxgraph.aws4.group;grIcon=mxgraph.aws4.group_vpc2;strokeColor=#8C4FFF;fillColor=none;verticalAlign=top;align=left;spacingLeft=30;fontColor=#AAB7B8;dashed=0;" vertex="1" parent="YoEOFFDDh4o3VPwnlARb-1">
          <mxGeometry x="37" y="39.5" width="850" height="552.5" as="geometry" />
        </mxCell>
        <mxCell id="YoEOFFDDh4o3VPwnlARb-3" value="Application" style="points=[[0,0],[0.25,0],[0.5,0],[0.75,0],[1,0],[1,0.25],[1,0.5],[1,0.75],[1,1],[0.75,1],[0.5,1],[0.25,1],[0,1],[0,0.75],[0,0.5],[0,0.25]];outlineConnect=0;gradientColor=none;html=1;whiteSpace=wrap;fontSize=12;fontStyle=0;container=1;pointerEvents=0;collapsible=0;recursiveResize=0;shape=mxgraph.aws4.group;grIcon=mxgraph.aws4.group_on_premise;strokeColor=#7D8998;fillColor=none;verticalAlign=top;align=left;spacingLeft=30;fontColor=#5A6C86;dashed=0;" vertex="1" parent="YoEOFFDDh4o3VPwnlARb-2">
          <mxGeometry x="-272" y="119.5" width="116" height="76" as="geometry" />
        </mxCell>
        <mxCell id="YoEOFFDDh4o3VPwnlARb-4" value="" style="sketch=0;points=[[0,0,0],[0.25,0,0],[0.5,0,0],[0.75,0,0],[1,0,0],[0,1,0],[0.25,1,0],[0.5,1,0],[0.75,1,0],[1,1,0],[0,0.25,0],[0,0.5,0],[0,0.75,0],[1,0.25,0],[1,0.5,0],[1,0.75,0]];outlineConnect=0;fontColor=#232F3E;fillColor=#01A88D;strokeColor=#ffffff;dashed=0;verticalLabelPosition=bottom;verticalAlign=top;align=center;html=1;fontSize=12;fontStyle=0;aspect=fixed;shape=mxgraph.aws4.resourceIcon;resIcon=mxgraph.aws4.transfer_family;" vertex="1" parent="YoEOFFDDh4o3VPwnlARb-2">
          <mxGeometry x="61" y="58.5" width="58" height="58" as="geometry" />
        </mxCell>
        <mxCell id="YoEOFFDDh4o3VPwnlARb-5" value="" style="sketch=0;points=[[0,0,0],[0.25,0,0],[0.5,0,0],[0.75,0,0],[1,0,0],[0,1,0],[0.25,1,0],[0.5,1,0],[0.75,1,0],[1,1,0],[0,0.25,0],[0,0.5,0],[0,0.75,0],[1,0.25,0],[1,0.5,0],[1,0.75,0]];outlineConnect=0;fontColor=#232F3E;fillColor=#7AA116;strokeColor=#ffffff;dashed=0;verticalLabelPosition=bottom;verticalAlign=top;align=center;html=1;fontSize=12;fontStyle=0;aspect=fixed;shape=mxgraph.aws4.resourceIcon;resIcon=mxgraph.aws4.s3;" vertex="1" parent="YoEOFFDDh4o3VPwnlARb-2">
          <mxGeometry x="61" y="198.5" width="58" height="58" as="geometry" />
        </mxCell>
        <mxCell id="YoEOFFDDh4o3VPwnlARb-6" value="" style="sketch=0;points=[[0,0,0],[0.25,0,0],[0.5,0,0],[0.75,0,0],[1,0,0],[0,1,0],[0.25,1,0],[0.5,1,0],[0.75,1,0],[1,1,0],[0,0.25,0],[0,0.5,0],[0,0.75,0],[1,0.25,0],[1,0.5,0],[1,0.75,0]];outlineConnect=0;fontColor=#232F3E;fillColor=#7AA116;strokeColor=#ffffff;dashed=0;verticalLabelPosition=bottom;verticalAlign=top;align=center;html=1;fontSize=12;fontStyle=0;aspect=fixed;shape=mxgraph.aws4.resourceIcon;resIcon=mxgraph.aws4.s3;" vertex="1" parent="YoEOFFDDh4o3VPwnlARb-2">
          <mxGeometry x="61" y="388.5" width="58" height="58" as="geometry" />
        </mxCell>
        <mxCell id="YoEOFFDDh4o3VPwnlARb-7" value="" style="sketch=0;points=[[0,0,0],[0.25,0,0],[0.5,0,0],[0.75,0,0],[1,0,0],[0,1,0],[0.25,1,0],[0.5,1,0],[0.75,1,0],[1,1,0],[0,0.25,0],[0,0.5,0],[0,0.75,0],[1,0.25,0],[1,0.5,0],[1,0.75,0]];outlineConnect=0;fontColor=#232F3E;fillColor=#ED7100;strokeColor=#ffffff;dashed=0;verticalLabelPosition=bottom;verticalAlign=top;align=center;html=1;fontSize=12;fontStyle=0;aspect=fixed;shape=mxgraph.aws4.resourceIcon;resIcon=mxgraph.aws4.lambda;" vertex="1" parent="YoEOFFDDh4o3VPwnlARb-2">
          <mxGeometry x="480" y="58.5" width="58" height="58" as="geometry" />
        </mxCell>
        <mxCell id="YoEOFFDDh4o3VPwnlARb-8" value="" style="sketch=0;points=[[0,0,0],[0.25,0,0],[0.5,0,0],[0.75,0,0],[1,0,0],[0,1,0],[0.25,1,0],[0.5,1,0],[0.75,1,0],[1,1,0],[0,0.25,0],[0,0.5,0],[0,0.75,0],[1,0.25,0],[1,0.5,0],[1,0.75,0]];outlineConnect=0;fontColor=#232F3E;fillColor=#DD344C;strokeColor=#ffffff;dashed=0;verticalLabelPosition=bottom;verticalAlign=top;align=center;html=1;fontSize=12;fontStyle=0;aspect=fixed;shape=mxgraph.aws4.resourceIcon;resIcon=mxgraph.aws4.cognito;" vertex="1" parent="YoEOFFDDh4o3VPwnlARb-2">
          <mxGeometry x="647" y="58.5" width="58" height="58" as="geometry" />
        </mxCell>
        <mxCell id="YoEOFFDDh4o3VPwnlARb-9" value="" style="sketch=0;points=[[0,0,0],[0.25,0,0],[0.5,0,0],[0.75,0,0],[1,0,0],[0,1,0],[0.25,1,0],[0.5,1,0],[0.75,1,0],[1,1,0],[0,0.25,0],[0,0.5,0],[0,0.75,0],[1,0.25,0],[1,0.5,0],[1,0.75,0]];outlineConnect=0;fontColor=#232F3E;fillColor=#DD344C;strokeColor=#ffffff;dashed=0;verticalLabelPosition=bottom;verticalAlign=top;align=center;html=1;fontSize=12;fontStyle=0;aspect=fixed;shape=mxgraph.aws4.resourceIcon;resIcon=mxgraph.aws4.guardduty;" vertex="1" parent="YoEOFFDDh4o3VPwnlARb-2">
          <mxGeometry x="313" y="198.5" width="58" height="58" as="geometry" />
        </mxCell>
        <mxCell id="YoEOFFDDh4o3VPwnlARb-10" value="" style="sketch=0;points=[[0,0,0],[0.25,0,0],[0.5,0,0],[0.75,0,0],[1,0,0],[0,1,0],[0.25,1,0],[0.5,1,0],[0.75,1,0],[1,1,0],[0,0.25,0],[0,0.5,0],[0,0.75,0],[1,0.25,0],[1,0.5,0],[1,0.75,0]];outlineConnect=0;fontColor=#232F3E;fillColor=#ED7100;strokeColor=#ffffff;dashed=0;verticalLabelPosition=bottom;verticalAlign=top;align=center;html=1;fontSize=12;fontStyle=0;aspect=fixed;shape=mxgraph.aws4.resourceIcon;resIcon=mxgraph.aws4.lambda;" vertex="1" parent="YoEOFFDDh4o3VPwnlARb-2">
          <mxGeometry x="313" y="388.5" width="58" height="58" as="geometry" />
        </mxCell>
        <mxCell id="YoEOFFDDh4o3VPwnlARb-11" value="" style="sketch=0;points=[[0,0,0],[0.25,0,0],[0.5,0,0],[0.75,0,0],[1,0,0],[0,1,0],[0.25,1,0],[0.5,1,0],[0.75,1,0],[1,1,0],[0,0.25,0],[0,0.5,0],[0,0.75,0],[1,0.25,0],[1,0.5,0],[1,0.75,0]];points=[[0,0,0],[0.25,0,0],[0.5,0,0],[0.75,0,0],[1,0,0],[0,1,0],[0.25,1,0],[0.5,1,0],[0.75,1,0],[1,1,0],[0,0.25,0],[0,0.5,0],[0,0.75,0],[1,0.25,0],[1,0.5,0],[1,0.75,0]];outlineConnect=0;fontColor=#232F3E;fillColor=#E7157B;strokeColor=#ffffff;dashed=0;verticalLabelPosition=bottom;verticalAlign=top;align=center;html=1;fontSize=12;fontStyle=0;aspect=fixed;shape=mxgraph.aws4.resourceIcon;resIcon=mxgraph.aws4.cloudwatch_2;" vertex="1" parent="YoEOFFDDh4o3VPwnlARb-2">
          <mxGeometry x="480" y="293.5" width="58" height="58" as="geometry" />
        </mxCell>
        <mxCell id="YoEOFFDDh4o3VPwnlARb-12" value="" style="endArrow=classic;html=1;rounded=0;fontSize=12;startSize=8;endSize=8;curved=1;exitX=1;exitY=0.25;exitDx=0;exitDy=0;exitPerimeter=0;entryX=0;entryY=0.25;entryDx=0;entryDy=0;entryPerimeter=0;strokeColor=#0000FF;flowAnimation=1;dashed=1;dashPattern=8 8;" edge="1" parent="YoEOFFDDh4o3VPwnlARb-2" source="YoEOFFDDh4o3VPwnlARb-4" target="YoEOFFDDh4o3VPwnlARb-7">
          <mxGeometry width="50" height="50" relative="1" as="geometry">
            <mxPoint x="-377" y="417.5" as="sourcePoint" />
            <mxPoint x="-327" y="367.5" as="targetPoint" />
          </mxGeometry>
        </mxCell>
        <mxCell id="YoEOFFDDh4o3VPwnlARb-13" value="" style="endArrow=classic;html=1;rounded=0;fontSize=12;startSize=8;endSize=8;curved=1;exitX=1;exitY=0.5;exitDx=0;exitDy=0;exitPerimeter=0;entryX=0;entryY=0.5;entryDx=0;entryDy=0;entryPerimeter=0;strokeColor=#0000FF;dashed=1;dashPattern=8 8;flowAnimation=1;" edge="1" parent="YoEOFFDDh4o3VPwnlARb-2" source="YoEOFFDDh4o3VPwnlARb-7" target="YoEOFFDDh4o3VPwnlARb-8">
          <mxGeometry width="50" height="50" relative="1" as="geometry">
            <mxPoint x="71" y="97.5" as="sourcePoint" />
            <mxPoint x="361" y="97.5" as="targetPoint" />
          </mxGeometry>
        </mxCell>
        <mxCell id="YoEOFFDDh4o3VPwnlARb-14" value="" style="endArrow=classic;html=1;rounded=0;fontSize=12;startSize=8;endSize=8;curved=1;exitX=0;exitY=0.75;exitDx=0;exitDy=0;exitPerimeter=0;entryX=1;entryY=0.75;entryDx=0;entryDy=0;entryPerimeter=0;strokeColor=#0000FF;dashed=1;dashPattern=8 8;flowAnimation=1;" edge="1" parent="YoEOFFDDh4o3VPwnlARb-2" source="YoEOFFDDh4o3VPwnlARb-7" target="YoEOFFDDh4o3VPwnlARb-4">
          <mxGeometry width="50" height="50" relative="1" as="geometry">
            <mxPoint x="129" y="83.5" as="sourcePoint" />
            <mxPoint x="419" y="83.5" as="targetPoint" />
          </mxGeometry>
        </mxCell>
        <mxCell id="YoEOFFDDh4o3VPwnlARb-15" value="" style="endArrow=classic;html=1;rounded=0;fontSize=12;startSize=8;endSize=8;curved=1;exitX=0.5;exitY=1;exitDx=0;exitDy=0;exitPerimeter=0;entryX=0.5;entryY=0;entryDx=0;entryDy=0;entryPerimeter=0;strokeColor=#0000FF;dashed=1;dashPattern=8 8;flowAnimation=1;" edge="1" parent="YoEOFFDDh4o3VPwnlARb-2" source="YoEOFFDDh4o3VPwnlARb-4" target="YoEOFFDDh4o3VPwnlARb-5">
          <mxGeometry width="50" height="50" relative="1" as="geometry">
            <mxPoint x="419" y="112.5" as="sourcePoint" />
            <mxPoint x="129" y="112.5" as="targetPoint" />
          </mxGeometry>
        </mxCell>
        <mxCell id="YoEOFFDDh4o3VPwnlARb-16" value="" style="endArrow=classic;html=1;rounded=0;fontSize=12;startSize=8;endSize=8;curved=1;exitX=1;exitY=0.25;exitDx=0;exitDy=0;exitPerimeter=0;entryX=0;entryY=0.25;entryDx=0;entryDy=0;entryPerimeter=0;strokeColor=#0000FF;dashed=1;dashPattern=8 8;flowAnimation=1;" edge="1" parent="YoEOFFDDh4o3VPwnlARb-2" source="YoEOFFDDh4o3VPwnlARb-5" target="YoEOFFDDh4o3VPwnlARb-9">
          <mxGeometry width="50" height="50" relative="1" as="geometry">
            <mxPoint x="100" y="126.5" as="sourcePoint" />
            <mxPoint x="100" y="208.5" as="targetPoint" />
          </mxGeometry>
        </mxCell>
        <mxCell id="YoEOFFDDh4o3VPwnlARb-17" value="" style="endArrow=classic;html=1;rounded=0;fontSize=12;startSize=8;endSize=8;curved=1;exitX=0;exitY=0.75;exitDx=0;exitDy=0;exitPerimeter=0;entryX=1;entryY=0.75;entryDx=0;entryDy=0;entryPerimeter=0;strokeColor=#0000FF;dashed=1;dashPattern=8 8;flowAnimation=1;" edge="1" parent="YoEOFFDDh4o3VPwnlARb-2" source="YoEOFFDDh4o3VPwnlARb-9" target="YoEOFFDDh4o3VPwnlARb-5">
          <mxGeometry width="50" height="50" relative="1" as="geometry">
            <mxPoint x="129" y="223.5" as="sourcePoint" />
            <mxPoint x="419" y="223.5" as="targetPoint" />
          </mxGeometry>
        </mxCell>
        <mxCell id="YoEOFFDDh4o3VPwnlARb-18" style="edgeStyle=none;curved=1;rounded=0;orthogonalLoop=1;jettySize=auto;html=1;entryX=0.5;entryY=0;entryDx=0;entryDy=0;entryPerimeter=0;fontSize=12;startSize=8;endSize=8;strokeColor=#0000FF;dashed=1;dashPattern=8 8;flowAnimation=1;" edge="1" parent="YoEOFFDDh4o3VPwnlARb-2" source="YoEOFFDDh4o3VPwnlARb-9" target="YoEOFFDDh4o3VPwnlARb-49">
          <mxGeometry relative="1" as="geometry">
            <mxPoint x="342" y="293.5" as="targetPoint" />
          </mxGeometry>
        </mxCell>
        <mxCell id="YoEOFFDDh4o3VPwnlARb-19" style="edgeStyle=none;curved=1;rounded=0;orthogonalLoop=1;jettySize=auto;html=1;entryX=0.5;entryY=0;entryDx=0;entryDy=0;entryPerimeter=0;fontSize=12;startSize=8;endSize=8;strokeColor=#0000FF;exitX=0.5;exitY=1;exitDx=0;exitDy=0;exitPerimeter=0;dashed=1;dashPattern=8 8;flowAnimation=1;" edge="1" parent="YoEOFFDDh4o3VPwnlARb-2" source="YoEOFFDDh4o3VPwnlARb-49" target="YoEOFFDDh4o3VPwnlARb-10">
          <mxGeometry relative="1" as="geometry">
            <mxPoint x="342" y="351.5" as="sourcePoint" />
            <mxPoint x="435" y="388.5" as="targetPoint" />
          </mxGeometry>
        </mxCell>
        <mxCell id="YoEOFFDDh4o3VPwnlARb-20" style="edgeStyle=none;curved=1;rounded=0;orthogonalLoop=1;jettySize=auto;html=1;entryX=1;entryY=0.5;entryDx=0;entryDy=0;entryPerimeter=0;fontSize=12;startSize=8;endSize=8;strokeColor=#0000FF;dashed=1;dashPattern=8 8;flowAnimation=1;" edge="1" parent="YoEOFFDDh4o3VPwnlARb-2" source="YoEOFFDDh4o3VPwnlARb-10" target="YoEOFFDDh4o3VPwnlARb-6">
          <mxGeometry relative="1" as="geometry" />
        </mxCell>
        <mxCell id="YoEOFFDDh4o3VPwnlARb-21" value="" style="endArrow=classic;html=1;rounded=0;fontSize=12;startSize=8;endSize=8;exitX=0.5;exitY=0;exitDx=0;exitDy=0;entryX=0;entryY=0.5;entryDx=0;entryDy=0;entryPerimeter=0;edgeStyle=orthogonalEdgeStyle;dashed=1;dashPattern=8 8;strokeColor=#0000FF;strokeWidth=1;flowAnimation=1;curved=0;" edge="1" parent="YoEOFFDDh4o3VPwnlARb-2" source="YoEOFFDDh4o3VPwnlARb-3" target="YoEOFFDDh4o3VPwnlARb-4">
          <mxGeometry width="50" height="50" relative="1" as="geometry">
            <mxPoint x="-242" y="68.5" as="sourcePoint" />
            <mxPoint x="-192" y="18.5" as="targetPoint" />
          </mxGeometry>
        </mxCell>
        <mxCell id="YoEOFFDDh4o3VPwnlARb-22" value="" style="endArrow=classic;html=1;rounded=0;fontSize=12;startSize=8;endSize=8;entryX=0;entryY=0.5;entryDx=0;entryDy=0;entryPerimeter=0;dashed=1;endFill=1;flowAnimation=1;exitX=1;exitY=0.5;exitDx=0;exitDy=0;exitPerimeter=0;edgeStyle=orthogonalEdgeStyle;dashPattern=1 4;" edge="1" parent="YoEOFFDDh4o3VPwnlARb-2" source="YoEOFFDDh4o3VPwnlARb-10" target="YoEOFFDDh4o3VPwnlARb-11">
          <mxGeometry width="50" height="50" relative="1" as="geometry">
            <mxPoint x="375" y="417.5" as="sourcePoint" />
            <mxPoint x="-190" y="280.5" as="targetPoint" />
          </mxGeometry>
        </mxCell>
        <mxCell id="YoEOFFDDh4o3VPwnlARb-23" value="" style="endArrow=classic;html=1;rounded=0;fontSize=12;startSize=8;endSize=8;curved=1;exitX=0.5;exitY=1;exitDx=0;exitDy=0;exitPerimeter=0;entryX=0.5;entryY=0;entryDx=0;entryDy=0;entryPerimeter=0;dashed=1;dashPattern=1 4;endFill=1;flowAnimation=1;" edge="1" parent="YoEOFFDDh4o3VPwnlARb-2" source="YoEOFFDDh4o3VPwnlARb-7" target="YoEOFFDDh4o3VPwnlARb-11">
          <mxGeometry width="50" height="50" relative="1" as="geometry">
            <mxPoint x="686" y="227.5" as="sourcePoint" />
            <mxPoint x="736" y="177.5" as="targetPoint" />
          </mxGeometry>
        </mxCell>
        <mxCell id="YoEOFFDDh4o3VPwnlARb-24" value="&lt;b&gt;&lt;font style=&quot;font-size: 12px;&quot;&gt;Transfer family&lt;/font&gt;&lt;/b&gt;" style="text;html=1;align=center;verticalAlign=middle;whiteSpace=wrap;rounded=0;fontSize=16;" vertex="1" parent="YoEOFFDDh4o3VPwnlARb-2">
          <mxGeometry x="31" y="28.5" width="118" height="30" as="geometry" />
        </mxCell>
        <mxCell id="YoEOFFDDh4o3VPwnlARb-25" value="&lt;span style=&quot;font-size: 12px;&quot;&gt;&lt;font style=&quot;font-size: 12px;&quot;&gt;&lt;b&gt;Lambda&lt;/b&gt;&lt;/font&gt;&lt;/span&gt;&lt;div style=&quot;font-size: 12px;&quot;&gt;&lt;font style=&quot;font-size: 12px;&quot;&gt;&lt;b&gt;Authenticator&lt;/b&gt;&lt;/font&gt;&lt;/div&gt;" style="text;html=1;align=center;verticalAlign=middle;whiteSpace=wrap;rounded=0;fontSize=16;" vertex="1" parent="YoEOFFDDh4o3VPwnlARb-2">
          <mxGeometry x="447.5" y="112.5" width="123" height="39" as="geometry" />
        </mxCell>
        <mxCell id="YoEOFFDDh4o3VPwnlARb-26" value="&lt;b&gt;&lt;font style=&quot;font-size: 12px;&quot;&gt;Cognito pool&lt;/font&gt;&lt;/b&gt;" style="text;html=1;align=center;verticalAlign=middle;whiteSpace=wrap;rounded=0;fontSize=16;" vertex="1" parent="YoEOFFDDh4o3VPwnlARb-2">
          <mxGeometry x="636.5" y="116.5" width="79" height="30" as="geometry" />
        </mxCell>
        <mxCell id="YoEOFFDDh4o3VPwnlARb-27" value="Origin Bucket" style="text;html=1;align=center;verticalAlign=middle;whiteSpace=wrap;rounded=0;fontSize=12;fontStyle=1" vertex="1" parent="YoEOFFDDh4o3VPwnlARb-2">
          <mxGeometry x="61" y="256.5" width="60" height="30" as="geometry" />
        </mxCell>
        <mxCell id="YoEOFFDDh4o3VPwnlARb-28" value="&lt;span style=&quot;font-size: 12px;&quot;&gt;&lt;b&gt;Quarantine Bucket&lt;/b&gt;&lt;/span&gt;" style="text;html=1;align=center;verticalAlign=middle;whiteSpace=wrap;rounded=0;fontSize=16;" vertex="1" parent="YoEOFFDDh4o3VPwnlARb-2">
          <mxGeometry x="57" y="444.5" width="66" height="38" as="geometry" />
        </mxCell>
        <mxCell id="YoEOFFDDh4o3VPwnlARb-29" value="&lt;b&gt;&lt;font style=&quot;font-size: 12px;&quot;&gt;Guard Duty&amp;nbsp;&lt;/font&gt;&lt;/b&gt;&lt;div&gt;&lt;b&gt;&lt;font style=&quot;font-size: 12px;&quot;&gt;S3 Malware Protection&lt;/font&gt;&lt;/b&gt;&lt;/div&gt;" style="text;html=1;align=center;verticalAlign=middle;whiteSpace=wrap;rounded=0;fontSize=16;" vertex="1" parent="YoEOFFDDh4o3VPwnlARb-2">
          <mxGeometry x="371" y="209" width="135" height="37" as="geometry" />
        </mxCell>
        <mxCell id="YoEOFFDDh4o3VPwnlARb-30" value="&lt;b&gt;&lt;font style=&quot;font-size: 12px;&quot;&gt;Security Jobs&lt;/font&gt;&lt;/b&gt;" style="text;html=1;align=center;verticalAlign=middle;whiteSpace=wrap;rounded=0;fontSize=16;" vertex="1" parent="YoEOFFDDh4o3VPwnlARb-2">
          <mxGeometry x="299.25" y="449.5" width="85.5" height="18.5" as="geometry" />
        </mxCell>
        <mxCell id="YoEOFFDDh4o3VPwnlARb-31" value="&lt;b&gt;&lt;font style=&quot;font-size: 12px;&quot;&gt;CloudWatch&lt;/font&gt;&lt;/b&gt;" style="text;html=1;align=center;verticalAlign=middle;whiteSpace=wrap;rounded=0;fontSize=16;" vertex="1" parent="YoEOFFDDh4o3VPwnlARb-2">
          <mxGeometry x="541" y="307.5" width="82" height="30" as="geometry" />
        </mxCell>
        <mxCell id="YoEOFFDDh4o3VPwnlARb-32" value="&lt;b&gt;&lt;font style=&quot;font-size: 12px;&quot;&gt;Event Bridge&lt;/font&gt;&lt;/b&gt;" style="text;html=1;align=center;verticalAlign=middle;whiteSpace=wrap;rounded=0;fontSize=16;" vertex="1" parent="YoEOFFDDh4o3VPwnlARb-2">
          <mxGeometry x="233" y="307.5" width="78" height="23.5" as="geometry" />
        </mxCell>
        <mxCell id="YoEOFFDDh4o3VPwnlARb-33" value="&lt;div style=&quot;font-size: 12px;&quot;&gt;&lt;b&gt;&lt;font style=&quot;font-size: 12px;&quot;&gt;Notes&lt;/font&gt;&lt;/b&gt;&lt;/div&gt;&lt;div style=&quot;font-size: 12px;&quot;&gt;&lt;b&gt;&lt;font style=&quot;font-size: 12px;&quot;&gt;&lt;br&gt;&lt;/font&gt;&lt;/b&gt;&lt;/div&gt;&lt;div style=&quot;font-size: 12px;&quot;&gt;&lt;div&gt;&lt;b&gt;5.&amp;nbsp;&lt;/b&gt;Push file to S3&lt;/div&gt;&lt;div&gt;&lt;b&gt;6.&lt;/b&gt; GuardDuty malware scanner triggers&lt;/div&gt;&lt;div&gt;&lt;b&gt;7.&lt;/b&gt; GuardDuty tags the object with the scan result&lt;/div&gt;&lt;div&gt;&lt;b&gt;8.&lt;/b&gt;&amp;nbsp;Event Bridge waits for the GuardDuty result&lt;/div&gt;&lt;div&gt;&lt;b&gt;9.&lt;/b&gt;&amp;nbsp;Event Bridge triggers the Security Job to check the object tag from GuardDuty&lt;/div&gt;&lt;div&gt;&lt;b&gt;10.&lt;/b&gt; Security Job moves the object to the quarantine bucket if malware is found&lt;/div&gt;&lt;div&gt;&lt;b&gt;11.&lt;/b&gt; Security Job logs to CloudWatch&lt;/div&gt;&lt;div&gt;&lt;b&gt;12.&lt;/b&gt; Security Job sends an email to notify the security team when malware is found&lt;/div&gt;&lt;/div&gt;" style="text;html=1;align=left;verticalAlign=middle;whiteSpace=wrap;rounded=0;fontSize=16;" vertex="1" parent="YoEOFFDDh4o3VPwnlARb-2">
          <mxGeometry x="634" y="280" width="216" height="272.5" as="geometry" />
        </mxCell>
        <mxCell id="YoEOFFDDh4o3VPwnlARb-34" value="" style="fontColor=#0066CC;verticalAlign=top;verticalLabelPosition=bottom;labelPosition=center;align=center;html=1;outlineConnect=0;fillColor=#CCCCCC;strokeColor=#6881B3;gradientColor=none;gradientDirection=north;strokeWidth=2;shape=mxgraph.networks.mail_server;" vertex="1" parent="YoEOFFDDh4o3VPwnlARb-2">
          <mxGeometry x="480" y="388.5" width="58" height="58" as="geometry" />
        </mxCell>
        <mxCell id="YoEOFFDDh4o3VPwnlARb-35" style="edgeStyle=none;curved=1;rounded=0;orthogonalLoop=1;jettySize=auto;html=1;entryX=0;entryY=0.5;entryDx=0;entryDy=0;entryPerimeter=0;fontSize=12;startSize=8;endSize=8;dashed=1;dashPattern=1 4;flowAnimation=1;" edge="1" parent="YoEOFFDDh4o3VPwnlARb-2" source="YoEOFFDDh4o3VPwnlARb-10" target="YoEOFFDDh4o3VPwnlARb-34">
          <mxGeometry relative="1" as="geometry" />
        </mxCell>
        <mxCell id="YoEOFFDDh4o3VPwnlARb-36" value="&lt;font style=&quot;font-size: 12px;&quot;&gt;&lt;b&gt;Mail server&lt;/b&gt;&lt;/font&gt;" style="text;html=1;align=center;verticalAlign=middle;whiteSpace=wrap;rounded=0;fontSize=16;" vertex="1" parent="YoEOFFDDh4o3VPwnlARb-2">
          <mxGeometry x="474.5" y="446.5" width="69" height="30" as="geometry" />
        </mxCell>
        <mxCell id="YoEOFFDDh4o3VPwnlARb-37" value="2" style="text;html=1;align=center;verticalAlign=middle;whiteSpace=wrap;rounded=0;fontSize=16;fillColor=#ffff88;strokeColor=#36393d;" vertex="1" parent="YoEOFFDDh4o3VPwnlARb-2">
          <mxGeometry x="269" y="54.5" width="19" height="18" as="geometry" />
        </mxCell>
        <mxCell id="YoEOFFDDh4o3VPwnlARb-38" value="3" style="text;html=1;align=center;verticalAlign=middle;whiteSpace=wrap;rounded=0;fontSize=16;fillColor=#ffff88;strokeColor=#36393d;" vertex="1" parent="YoEOFFDDh4o3VPwnlARb-2">
          <mxGeometry x="583" y="69.5" width="19" height="18" as="geometry" />
        </mxCell>
        <mxCell id="YoEOFFDDh4o3VPwnlARb-39" value="4" style="text;html=1;align=center;verticalAlign=middle;whiteSpace=wrap;rounded=0;fontSize=16;fillColor=#ffff88;strokeColor=#36393d;" vertex="1" parent="YoEOFFDDh4o3VPwnlARb-2">
          <mxGeometry x="269" y="84.5" width="19" height="18" as="geometry" />
        </mxCell>
        <mxCell id="YoEOFFDDh4o3VPwnlARb-40" value="5" style="text;html=1;align=center;verticalAlign=middle;whiteSpace=wrap;rounded=0;fontSize=16;fillColor=#ffff88;strokeColor=#36393d;" vertex="1" parent="YoEOFFDDh4o3VPwnlARb-2">
          <mxGeometry x="92" y="148.5" width="19" height="18" as="geometry" />
        </mxCell>
        <mxCell id="YoEOFFDDh4o3VPwnlARb-41" value="4b" style="text;html=1;align=center;verticalAlign=middle;whiteSpace=wrap;rounded=0;fontSize=16;fillColor=#ffff88;strokeColor=#36393d;" vertex="1" parent="YoEOFFDDh4o3VPwnlARb-2">
          <mxGeometry x="509" y="198.5" width="19" height="18" as="geometry" />
        </mxCell>
        <mxCell id="YoEOFFDDh4o3VPwnlARb-42" value="6" style="text;html=1;align=center;verticalAlign=middle;whiteSpace=wrap;rounded=0;fontSize=16;fillColor=#ffff88;strokeColor=#36393d;" vertex="1" parent="YoEOFFDDh4o3VPwnlARb-2">
          <mxGeometry x="207" y="191" width="19" height="18" as="geometry" />
        </mxCell>
        <mxCell id="YoEOFFDDh4o3VPwnlARb-43" value="7" style="text;html=1;align=center;verticalAlign=middle;whiteSpace=wrap;rounded=0;fontSize=16;fillColor=#ffff88;strokeColor=#36393d;" vertex="1" parent="YoEOFFDDh4o3VPwnlARb-2">
          <mxGeometry x="207" y="221.5" width="19" height="18" as="geometry" />
        </mxCell>
        <mxCell id="YoEOFFDDh4o3VPwnlARb-44" value="8" style="text;html=1;align=center;verticalAlign=middle;whiteSpace=wrap;rounded=0;fontSize=16;fillColor=#ffff88;strokeColor=#36393d;" vertex="1" parent="YoEOFFDDh4o3VPwnlARb-2">
          <mxGeometry x="348" y="262.5" width="19" height="18" as="geometry" />
        </mxCell>
        <mxCell id="YoEOFFDDh4o3VPwnlARb-45" value="9" style="text;html=1;align=center;verticalAlign=middle;whiteSpace=wrap;rounded=0;fontSize=16;fillColor=#ffff88;strokeColor=#36393d;" vertex="1" parent="YoEOFFDDh4o3VPwnlARb-2">
          <mxGeometry x="348" y="358.5" width="19" height="18" as="geometry" />
        </mxCell>
        <mxCell id="YoEOFFDDh4o3VPwnlARb-46" value="10" style="text;html=1;align=center;verticalAlign=middle;whiteSpace=wrap;rounded=0;fontSize=16;fillColor=#ffff88;strokeColor=#36393d;" vertex="1" parent="YoEOFFDDh4o3VPwnlARb-2">
          <mxGeometry x="207" y="397.5" width="19" height="18" as="geometry" />
        </mxCell>
        <mxCell id="YoEOFFDDh4o3VPwnlARb-47" value="11" style="text;html=1;align=center;verticalAlign=middle;whiteSpace=wrap;rounded=0;fontSize=16;fillColor=#ffff88;strokeColor=#36393d;" vertex="1" parent="YoEOFFDDh4o3VPwnlARb-2">
          <mxGeometry x="428.5" y="358.5" width="19" height="18" as="geometry" />
        </mxCell>
        <mxCell id="YoEOFFDDh4o3VPwnlARb-48" value="12" style="text;html=1;align=center;verticalAlign=middle;whiteSpace=wrap;rounded=0;fontSize=16;fillColor=#ffff88;strokeColor=#36393d;" vertex="1" parent="YoEOFFDDh4o3VPwnlARb-2">
          <mxGeometry x="429" y="421.5" width="19" height="18" as="geometry" />
        </mxCell>
        <mxCell id="YoEOFFDDh4o3VPwnlARb-49" value="" style="sketch=0;points=[[0,0,0],[0.25,0,0],[0.5,0,0],[0.75,0,0],[1,0,0],[0,1,0],[0.25,1,0],[0.5,1,0],[0.75,1,0],[1,1,0],[0,0.25,0],[0,0.5,0],[0,0.75,0],[1,0.25,0],[1,0.5,0],[1,0.75,0]];outlineConnect=0;fontColor=#232F3E;fillColor=#E7157B;strokeColor=#ffffff;dashed=0;verticalLabelPosition=bottom;verticalAlign=top;align=center;html=1;fontSize=12;fontStyle=0;aspect=fixed;shape=mxgraph.aws4.resourceIcon;resIcon=mxgraph.aws4.eventbridge;" vertex="1" parent="YoEOFFDDh4o3VPwnlARb-2">
          <mxGeometry x="313" y="293.5" width="58" height="58" as="geometry" />
        </mxCell>
        <mxCell id="YoEOFFDDh4o3VPwnlARb-50" value="&lt;b style=&quot;font-size: 12px;&quot;&gt;&lt;font style=&quot;font-size: 12px;&quot;&gt;UserName/Password&lt;/font&gt;&lt;/b&gt;&lt;div style=&quot;font-size: 12px;&quot;&gt;&lt;b style=&quot;&quot;&gt;&lt;font style=&quot;font-size: 12px;&quot;&gt;UserName/Key&lt;/font&gt;&lt;/b&gt;&lt;/div&gt;" style="text;html=1;align=center;verticalAlign=middle;whiteSpace=wrap;rounded=0;fontSize=16;" vertex="1" parent="1">
          <mxGeometry x="-2467" y="-954" width="123" height="39" as="geometry" />
        </mxCell>
        <mxCell id="YoEOFFDDh4o3VPwnlARb-51" value="&lt;div style=&quot;font-size: 12px;&quot;&gt;&lt;b style=&quot;&quot;&gt;&lt;font style=&quot;font-size: 12px;&quot;&gt;Notes&lt;/font&gt;&lt;/b&gt;&lt;/div&gt;&lt;div style=&quot;font-size: 12px;&quot;&gt;&lt;b&gt;&lt;font style=&quot;font-size: 12px;&quot;&gt;&lt;br&gt;&lt;/font&gt;&lt;/b&gt;&lt;/div&gt;&lt;div style=&quot;font-size: 12px;&quot;&gt;&lt;font style=&quot;font-size: 12px;&quot;&gt;&lt;b&gt;1. &lt;/b&gt;App provide username&amp;amp;password or username&amp;amp;key&lt;/font&gt;&lt;/div&gt;&lt;div style=&quot;font-size: 12px;&quot;&gt;&lt;font style=&quot;font-size: 12px;&quot;&gt;&lt;b&gt;2.&lt;/b&gt;&amp;nbsp;Trigger Authenticator Lambda&lt;/font&gt;&lt;/div&gt;&lt;div style=&quot;font-size: 12px;&quot;&gt;&lt;font style=&quot;font-size: 12px;&quot;&gt;&lt;b&gt;3. &lt;/b&gt;Validate with Cognito&lt;/font&gt;&lt;/div&gt;&lt;div style=&quot;font-size: 12px;&quot;&gt;&lt;font style=&quot;font-size: 12px;&quot;&gt;&lt;b&gt;4. &lt;/b&gt;Return OK to SFTP Server&lt;/font&gt;&lt;/div&gt;&lt;div style=&quot;font-size: 12px;&quot;&gt;&lt;font style=&quot;font-size: 12px;&quot;&gt;&lt;b style=&quot;&quot;&gt;4b. &lt;/b&gt;Log to CloudWatch if login failed&lt;/font&gt;&lt;/div&gt;" style="text;html=1;align=left;verticalAlign=middle;whiteSpace=wrap;rounded=0;fontSize=16;" vertex="1" parent="1">
          <mxGeometry x="-2474" y="-588" width="216" height="138" as="geometry" />
        </mxCell>
        <mxCell id="YoEOFFDDh4o3VPwnlARb-52" value="1" style="text;html=1;align=center;verticalAlign=middle;whiteSpace=wrap;rounded=0;fontSize=16;fillColor=#ffff88;strokeColor=#36393d;" vertex="1" parent="1">
          <mxGeometry x="-2324" y="-933" width="19" height="18" as="geometry" />
        </mxCell>
        <mxCell id="YoEOFFDDh4o3VPwnlARb-53" value="&lt;font style=&quot;font-size: 12px;&quot;&gt;&lt;b&gt;Note: &lt;/b&gt;All files will be scan for malware before available to downstream application&amp;nbsp;&lt;/font&gt;&lt;div&gt;&lt;font style=&quot;font-size: 12px;&quot;&gt;&lt;b&gt;Ref:&lt;/b&gt;&amp;nbsp;&lt;/font&gt;&lt;span style=&quot;font-size: 12px; background-color: initial;&quot;&gt;https://docs.aws.amazon.com/transfer/latest/userguide/transfer-workflows.html | https://aws.amazon.com/blogs/security/how-to-use-aws-transfer-family-and-guardduty-for-malware-protection/&lt;/span&gt;&lt;/div&gt;" style="text;html=1;align=left;verticalAlign=middle;whiteSpace=wrap;rounded=0;fontSize=16;" vertex="1" parent="1">
          <mxGeometry x="-2474" y="-427" width="1166" height="43" as="geometry" />
        </mxCell>
      </root>
    </mxGraphModel>
  </diagram>
  <diagram id="u3VqEhABGps_ZcW8y5N5" name="present">
    <mxGraphModel dx="4228" dy="1974" grid="1" gridSize="10" guides="1" tooltips="1" connect="1" arrows="1" fold="1" page="1" pageScale="1" pageWidth="850" pageHeight="1100" math="0" shadow="0">
      <root>
        <mxCell id="0" />
        <mxCell id="1" parent="0" />
        <mxCell id="EodsJ_An7O6TikmpGrv0-1" value="AWS Cloud" style="points=[[0,0],[0.25,0],[0.5,0],[0.75,0],[1,0],[1,0.25],[1,0.5],[1,0.75],[1,1],[0.75,1],[0.5,1],[0.25,1],[0,1],[0,0.75],[0,0.5],[0,0.25]];outlineConnect=0;gradientColor=none;html=1;whiteSpace=wrap;fontSize=12;fontStyle=0;container=1;pointerEvents=0;collapsible=0;recursiveResize=0;shape=mxgraph.aws4.group;grIcon=mxgraph.aws4.group_aws_cloud_alt;strokeColor=#232F3E;fillColor=none;verticalAlign=top;align=left;spacingLeft=30;fontColor=#232F3E;dashed=0;" vertex="1" parent="1">
          <mxGeometry x="-2062" y="-990" width="822" height="510" as="geometry" />
        </mxCell>
        <mxCell id="EodsJ_An7O6TikmpGrv0-2" value="File Transfer Platform VPC" style="points=[[0,0],[0.25,0],[0.5,0],[0.75,0],[1,0],[1,0.25],[1,0.5],[1,0.75],[1,1],[0.75,1],[0.5,1],[0.25,1],[0,1],[0,0.75],[0,0.5],[0,0.25]];outlineConnect=0;gradientColor=none;html=1;whiteSpace=wrap;fontSize=12;fontStyle=0;container=1;pointerEvents=0;collapsible=0;recursiveResize=0;shape=mxgraph.aws4.group;grIcon=mxgraph.aws4.group_vpc2;strokeColor=#8C4FFF;fillColor=none;verticalAlign=top;align=left;spacingLeft=30;fontColor=#AAB7B8;dashed=0;" vertex="1" parent="EodsJ_An7O6TikmpGrv0-1">
          <mxGeometry x="37" y="39.5" width="743" height="430.5" as="geometry" />
        </mxCell>
        <mxCell id="EodsJ_An7O6TikmpGrv0-3" value="Application" style="points=[[0,0],[0.25,0],[0.5,0],[0.75,0],[1,0],[1,0.25],[1,0.5],[1,0.75],[1,1],[0.75,1],[0.5,1],[0.25,1],[0,1],[0,0.75],[0,0.5],[0,0.25]];outlineConnect=0;gradientColor=none;html=1;whiteSpace=wrap;fontSize=12;fontStyle=0;container=1;pointerEvents=0;collapsible=0;recursiveResize=0;shape=mxgraph.aws4.group;grIcon=mxgraph.aws4.group_on_premise;strokeColor=#7D8998;fillColor=none;verticalAlign=top;align=left;spacingLeft=30;fontColor=#5A6C86;dashed=0;" vertex="1" parent="EodsJ_An7O6TikmpGrv0-2">
          <mxGeometry x="-272" y="119.5" width="116" height="76" as="geometry" />
        </mxCell>
        <mxCell id="EodsJ_An7O6TikmpGrv0-4" value="" style="sketch=0;points=[[0,0,0],[0.25,0,0],[0.5,0,0],[0.75,0,0],[1,0,0],[0,1,0],[0.25,1,0],[0.5,1,0],[0.75,1,0],[1,1,0],[0,0.25,0],[0,0.5,0],[0,0.75,0],[1,0.25,0],[1,0.5,0],[1,0.75,0]];outlineConnect=0;fontColor=#232F3E;fillColor=#01A88D;strokeColor=#ffffff;dashed=0;verticalLabelPosition=bottom;verticalAlign=top;align=center;html=1;fontSize=12;fontStyle=0;aspect=fixed;shape=mxgraph.aws4.resourceIcon;resIcon=mxgraph.aws4.transfer_family;" vertex="1" parent="EodsJ_An7O6TikmpGrv0-2">
          <mxGeometry x="61" y="58.5" width="58" height="58" as="geometry" />
        </mxCell>
        <mxCell id="EodsJ_An7O6TikmpGrv0-5" value="" style="sketch=0;points=[[0,0,0],[0.25,0,0],[0.5,0,0],[0.75,0,0],[1,0,0],[0,1,0],[0.25,1,0],[0.5,1,0],[0.75,1,0],[1,1,0],[0,0.25,0],[0,0.5,0],[0,0.75,0],[1,0.25,0],[1,0.5,0],[1,0.75,0]];outlineConnect=0;fontColor=#232F3E;fillColor=#7AA116;strokeColor=#ffffff;dashed=0;verticalLabelPosition=bottom;verticalAlign=top;align=center;html=1;fontSize=12;fontStyle=0;aspect=fixed;shape=mxgraph.aws4.resourceIcon;resIcon=mxgraph.aws4.s3;" vertex="1" parent="EodsJ_An7O6TikmpGrv0-2">
          <mxGeometry x="60" y="314.5" width="58" height="58" as="geometry" />
        </mxCell>
        <mxCell id="EodsJ_An7O6TikmpGrv0-7" value="" style="sketch=0;points=[[0,0,0],[0.25,0,0],[0.5,0,0],[0.75,0,0],[1,0,0],[0,1,0],[0.25,1,0],[0.5,1,0],[0.75,1,0],[1,1,0],[0,0.25,0],[0,0.5,0],[0,0.75,0],[1,0.25,0],[1,0.5,0],[1,0.75,0]];outlineConnect=0;fontColor=#232F3E;fillColor=#ED7100;strokeColor=#ffffff;dashed=0;verticalLabelPosition=bottom;verticalAlign=top;align=center;html=1;fontSize=12;fontStyle=0;aspect=fixed;shape=mxgraph.aws4.resourceIcon;resIcon=mxgraph.aws4.lambda;" vertex="1" parent="EodsJ_An7O6TikmpGrv0-2">
          <mxGeometry x="480" y="58.5" width="58" height="58" as="geometry" />
        </mxCell>
        <mxCell id="EodsJ_An7O6TikmpGrv0-8" value="" style="sketch=0;points=[[0,0,0],[0.25,0,0],[0.5,0,0],[0.75,0,0],[1,0,0],[0,1,0],[0.25,1,0],[0.5,1,0],[0.75,1,0],[1,1,0],[0,0.25,0],[0,0.5,0],[0,0.75,0],[1,0.25,0],[1,0.5,0],[1,0.75,0]];outlineConnect=0;fontColor=#232F3E;fillColor=#DD344C;strokeColor=#ffffff;dashed=0;verticalLabelPosition=bottom;verticalAlign=top;align=center;html=1;fontSize=12;fontStyle=0;aspect=fixed;shape=mxgraph.aws4.resourceIcon;resIcon=mxgraph.aws4.cognito;" vertex="1" parent="EodsJ_An7O6TikmpGrv0-2">
          <mxGeometry x="647" y="58.5" width="58" height="58" as="geometry" />
        </mxCell>
        <mxCell id="EodsJ_An7O6TikmpGrv0-11" value="" style="sketch=0;points=[[0,0,0],[0.25,0,0],[0.5,0,0],[0.75,0,0],[1,0,0],[0,1,0],[0.25,1,0],[0.5,1,0],[0.75,1,0],[1,1,0],[0,0.25,0],[0,0.5,0],[0,0.75,0],[1,0.25,0],[1,0.5,0],[1,0.75,0]];points=[[0,0,0],[0.25,0,0],[0.5,0,0],[0.75,0,0],[1,0,0],[0,1,0],[0.25,1,0],[0.5,1,0],[0.75,1,0],[1,1,0],[0,0.25,0],[0,0.5,0],[0,0.75,0],[1,0.25,0],[1,0.5,0],[1,0.75,0]];outlineConnect=0;fontColor=#232F3E;fillColor=#E7157B;strokeColor=#ffffff;dashed=0;verticalLabelPosition=bottom;verticalAlign=top;align=center;html=1;fontSize=12;fontStyle=0;aspect=fixed;shape=mxgraph.aws4.resourceIcon;resIcon=mxgraph.aws4.cloudwatch_2;" vertex="1" parent="EodsJ_An7O6TikmpGrv0-2">
          <mxGeometry x="483" y="314.5" width="58" height="58" as="geometry" />
        </mxCell>
        <mxCell id="EodsJ_An7O6TikmpGrv0-12" value="" style="endArrow=classic;html=1;rounded=0;fontSize=12;startSize=8;endSize=8;curved=1;exitX=1;exitY=0.25;exitDx=0;exitDy=0;exitPerimeter=0;entryX=0;entryY=0.25;entryDx=0;entryDy=0;entryPerimeter=0;strokeColor=#0000FF;flowAnimation=1;dashed=1;dashPattern=8 8;" edge="1" parent="EodsJ_An7O6TikmpGrv0-2" source="EodsJ_An7O6TikmpGrv0-4" target="EodsJ_An7O6TikmpGrv0-7">
          <mxGeometry width="50" height="50" relative="1" as="geometry">
            <mxPoint x="-377" y="417.5" as="sourcePoint" />
            <mxPoint x="-327" y="367.5" as="targetPoint" />
          </mxGeometry>
        </mxCell>
        <mxCell id="EodsJ_An7O6TikmpGrv0-13" value="" style="endArrow=classic;html=1;rounded=0;fontSize=12;startSize=8;endSize=8;curved=1;exitX=1;exitY=0.5;exitDx=0;exitDy=0;exitPerimeter=0;entryX=0;entryY=0.5;entryDx=0;entryDy=0;entryPerimeter=0;strokeColor=#0000FF;dashed=1;dashPattern=8 8;flowAnimation=1;" edge="1" parent="EodsJ_An7O6TikmpGrv0-2" source="EodsJ_An7O6TikmpGrv0-7" target="EodsJ_An7O6TikmpGrv0-8">
          <mxGeometry width="50" height="50" relative="1" as="geometry">
            <mxPoint x="71" y="97.5" as="sourcePoint" />
            <mxPoint x="361" y="97.5" as="targetPoint" />
          </mxGeometry>
        </mxCell>
        <mxCell id="EodsJ_An7O6TikmpGrv0-14" value="" style="endArrow=classic;html=1;rounded=0;fontSize=12;startSize=8;endSize=8;curved=1;exitX=0;exitY=0.75;exitDx=0;exitDy=0;exitPerimeter=0;entryX=1;entryY=0.75;entryDx=0;entryDy=0;entryPerimeter=0;strokeColor=#0000FF;dashed=1;dashPattern=8 8;flowAnimation=1;" edge="1" parent="EodsJ_An7O6TikmpGrv0-2" source="EodsJ_An7O6TikmpGrv0-7" target="EodsJ_An7O6TikmpGrv0-4">
          <mxGeometry width="50" height="50" relative="1" as="geometry">
            <mxPoint x="129" y="83.5" as="sourcePoint" />
            <mxPoint x="419" y="83.5" as="targetPoint" />
          </mxGeometry>
        </mxCell>
        <mxCell id="EodsJ_An7O6TikmpGrv0-15" value="" style="endArrow=classic;html=1;rounded=0;fontSize=12;startSize=8;endSize=8;curved=1;exitX=0.5;exitY=1;exitDx=0;exitDy=0;exitPerimeter=0;entryX=0.5;entryY=0;entryDx=0;entryDy=0;entryPerimeter=0;strokeColor=#0000FF;dashed=1;dashPattern=8 8;flowAnimation=1;" edge="1" parent="EodsJ_An7O6TikmpGrv0-2" source="EodsJ_An7O6TikmpGrv0-4" target="EodsJ_An7O6TikmpGrv0-5">
          <mxGeometry width="50" height="50" relative="1" as="geometry">
            <mxPoint x="419" y="112.5" as="sourcePoint" />
            <mxPoint x="129" y="112.5" as="targetPoint" />
          </mxGeometry>
        </mxCell>
        <mxCell id="EodsJ_An7O6TikmpGrv0-21" value="" style="endArrow=classic;html=1;rounded=0;fontSize=12;startSize=8;endSize=8;exitX=0.5;exitY=0;exitDx=0;exitDy=0;entryX=0;entryY=0.5;entryDx=0;entryDy=0;entryPerimeter=0;edgeStyle=orthogonalEdgeStyle;dashed=1;dashPattern=8 8;strokeColor=#0000FF;strokeWidth=1;flowAnimation=1;curved=0;" edge="1" parent="EodsJ_An7O6TikmpGrv0-2" source="EodsJ_An7O6TikmpGrv0-3" target="EodsJ_An7O6TikmpGrv0-4">
          <mxGeometry width="50" height="50" relative="1" as="geometry">
            <mxPoint x="-242" y="68.5" as="sourcePoint" />
            <mxPoint x="-192" y="18.5" as="targetPoint" />
          </mxGeometry>
        </mxCell>
        <mxCell id="EodsJ_An7O6TikmpGrv0-23" value="" style="endArrow=classic;html=1;rounded=0;fontSize=12;startSize=8;endSize=8;curved=1;exitX=0.5;exitY=1;exitDx=0;exitDy=0;exitPerimeter=0;entryX=0.5;entryY=0;entryDx=0;entryDy=0;entryPerimeter=0;dashed=1;dashPattern=1 4;endFill=1;flowAnimation=1;" edge="1" parent="EodsJ_An7O6TikmpGrv0-2" source="EodsJ_An7O6TikmpGrv0-7" target="EodsJ_An7O6TikmpGrv0-11">
          <mxGeometry width="50" height="50" relative="1" as="geometry">
            <mxPoint x="686" y="227.5" as="sourcePoint" />
            <mxPoint x="736" y="177.5" as="targetPoint" />
          </mxGeometry>
        </mxCell>
        <mxCell id="EodsJ_An7O6TikmpGrv0-24" value="&lt;b&gt;&lt;font style=&quot;font-size: 12px;&quot;&gt;Transfer family&lt;/font&gt;&lt;/b&gt;" style="text;html=1;align=center;verticalAlign=middle;whiteSpace=wrap;rounded=0;fontSize=16;" vertex="1" parent="EodsJ_An7O6TikmpGrv0-2">
          <mxGeometry x="31" y="28.5" width="118" height="30" as="geometry" />
        </mxCell>
        <mxCell id="EodsJ_An7O6TikmpGrv0-25" value="&lt;span style=&quot;font-size: 12px;&quot;&gt;&lt;font style=&quot;font-size: 12px;&quot;&gt;&lt;b&gt;Lambda&lt;/b&gt;&lt;/font&gt;&lt;/span&gt;&lt;div style=&quot;font-size: 12px;&quot;&gt;&lt;font style=&quot;font-size: 12px;&quot;&gt;&lt;b&gt;Authenticator&lt;/b&gt;&lt;/font&gt;&lt;/div&gt;" style="text;html=1;align=center;verticalAlign=middle;whiteSpace=wrap;rounded=0;fontSize=16;" vertex="1" parent="EodsJ_An7O6TikmpGrv0-2">
          <mxGeometry x="447.5" y="112.5" width="123" height="39" as="geometry" />
        </mxCell>
        <mxCell id="EodsJ_An7O6TikmpGrv0-26" value="&lt;b&gt;&lt;font style=&quot;font-size: 12px;&quot;&gt;Cognito pool&lt;/font&gt;&lt;/b&gt;" style="text;html=1;align=center;verticalAlign=middle;whiteSpace=wrap;rounded=0;fontSize=16;" vertex="1" parent="EodsJ_An7O6TikmpGrv0-2">
          <mxGeometry x="636.5" y="116.5" width="79" height="30" as="geometry" />
        </mxCell>
        <mxCell id="EodsJ_An7O6TikmpGrv0-27" value="Origin Bucket" style="text;html=1;align=center;verticalAlign=middle;whiteSpace=wrap;rounded=0;fontSize=12;fontStyle=1" vertex="1" parent="EodsJ_An7O6TikmpGrv0-2">
          <mxGeometry x="59" y="372.5" width="60" height="30" as="geometry" />
        </mxCell>
        <mxCell id="EodsJ_An7O6TikmpGrv0-31" value="&lt;b&gt;&lt;font style=&quot;font-size: 12px;&quot;&gt;CloudWatch&lt;/font&gt;&lt;/b&gt;" style="text;html=1;align=center;verticalAlign=middle;whiteSpace=wrap;rounded=0;fontSize=16;" vertex="1" parent="EodsJ_An7O6TikmpGrv0-2">
          <mxGeometry x="541" y="307.5" width="82" height="30" as="geometry" />
        </mxCell>
        <mxCell id="EodsJ_An7O6TikmpGrv0-37" value="2" style="text;html=1;align=center;verticalAlign=middle;whiteSpace=wrap;rounded=0;fontSize=16;fillColor=#ffff88;strokeColor=#36393d;" vertex="1" parent="EodsJ_An7O6TikmpGrv0-2">
          <mxGeometry x="269" y="54.5" width="19" height="18" as="geometry" />
        </mxCell>
        <mxCell id="EodsJ_An7O6TikmpGrv0-38" value="3" style="text;html=1;align=center;verticalAlign=middle;whiteSpace=wrap;rounded=0;fontSize=16;fillColor=#ffff88;strokeColor=#36393d;" vertex="1" parent="EodsJ_An7O6TikmpGrv0-2">
          <mxGeometry x="583" y="69.5" width="19" height="18" as="geometry" />
        </mxCell>
        <mxCell id="EodsJ_An7O6TikmpGrv0-39" value="4" style="text;html=1;align=center;verticalAlign=middle;whiteSpace=wrap;rounded=0;fontSize=16;fillColor=#ffff88;strokeColor=#36393d;" vertex="1" parent="EodsJ_An7O6TikmpGrv0-2">
          <mxGeometry x="269" y="84.5" width="19" height="18" as="geometry" />
        </mxCell>
        <mxCell id="EodsJ_An7O6TikmpGrv0-40" value="5" style="text;html=1;align=center;verticalAlign=middle;whiteSpace=wrap;rounded=0;fontSize=16;fillColor=#ffff88;strokeColor=#36393d;" vertex="1" parent="EodsJ_An7O6TikmpGrv0-2">
          <mxGeometry x="99" y="228.5" width="19" height="18" as="geometry" />
        </mxCell>
        <mxCell id="EodsJ_An7O6TikmpGrv0-41" value="4b" style="text;html=1;align=center;verticalAlign=middle;whiteSpace=wrap;rounded=0;fontSize=16;fillColor=#ffff88;strokeColor=#36393d;" vertex="1" parent="EodsJ_An7O6TikmpGrv0-2">
          <mxGeometry x="519" y="221.5" width="19" height="18" as="geometry" />
        </mxCell>
        <mxCell id="EodsJ_An7O6TikmpGrv0-50" value="&lt;b style=&quot;font-size: 12px;&quot;&gt;&lt;font style=&quot;font-size: 12px;&quot;&gt;UserName/Password&lt;/font&gt;&lt;/b&gt;&lt;div style=&quot;font-size: 12px;&quot;&gt;&lt;b style=&quot;&quot;&gt;&lt;font style=&quot;font-size: 12px;&quot;&gt;UserName/Key&lt;/font&gt;&lt;/b&gt;&lt;/div&gt;" style="text;html=1;align=center;verticalAlign=middle;whiteSpace=wrap;rounded=0;fontSize=16;" vertex="1" parent="1">
          <mxGeometry x="-2293" y="-904" width="123" height="39" as="geometry" />
        </mxCell>
        <mxCell id="EodsJ_An7O6TikmpGrv0-51" value="&lt;div style=&quot;font-size: 12px;&quot;&gt;&lt;b style=&quot;&quot;&gt;&lt;font style=&quot;font-size: 12px;&quot;&gt;Notes&lt;/font&gt;&lt;/b&gt;&lt;/div&gt;&lt;div style=&quot;font-size: 12px;&quot;&gt;&lt;b&gt;&lt;font style=&quot;font-size: 12px;&quot;&gt;&lt;br&gt;&lt;/font&gt;&lt;/b&gt;&lt;/div&gt;&lt;div style=&quot;font-size: 12px;&quot;&gt;&lt;font style=&quot;font-size: 12px;&quot;&gt;&lt;b&gt;1. &lt;/b&gt;App provide username&amp;amp;password or username&amp;amp;key&lt;/font&gt;&lt;/div&gt;&lt;div style=&quot;font-size: 12px;&quot;&gt;&lt;font style=&quot;font-size: 12px;&quot;&gt;&lt;b&gt;2.&lt;/b&gt;&amp;nbsp;Trigger Authenticator Lambda&lt;/font&gt;&lt;/div&gt;&lt;div style=&quot;font-size: 12px;&quot;&gt;&lt;font style=&quot;font-size: 12px;&quot;&gt;&lt;b&gt;3. &lt;/b&gt;Validate with Cognito&lt;/font&gt;&lt;/div&gt;&lt;div style=&quot;font-size: 12px;&quot;&gt;&lt;font style=&quot;font-size: 12px;&quot;&gt;&lt;b&gt;4. &lt;/b&gt;Return OK to SFTP Server&lt;/font&gt;&lt;/div&gt;&lt;div style=&quot;font-size: 12px;&quot;&gt;&lt;font style=&quot;font-size: 12px;&quot;&gt;&lt;b style=&quot;&quot;&gt;4b. &lt;/b&gt;Log to CloudWatch if login failed&lt;/font&gt;&lt;/div&gt;&lt;div style=&quot;font-size: 12px;&quot;&gt;&lt;b&gt;5.&lt;/b&gt;&amp;nbsp;Store files in S3 Origin bucket&amp;nbsp;&lt;/div&gt;" style="text;html=1;align=left;verticalAlign=middle;whiteSpace=wrap;rounded=0;fontSize=16;" vertex="1" parent="1">
          <mxGeometry x="-2300" y="-618" width="216" height="138" as="geometry" />
        </mxCell>
        <mxCell id="EodsJ_An7O6TikmpGrv0-52" value="1" style="text;html=1;align=center;verticalAlign=middle;whiteSpace=wrap;rounded=0;fontSize=16;fillColor=#ffff88;strokeColor=#36393d;" vertex="1" parent="1">
          <mxGeometry x="-2150" y="-883" width="19" height="18" as="geometry" />
        </mxCell>
      </root>
    </mxGraphModel>
  </diagram>
  <diagram id="PKfZ5V5GViWsT20Cn8R8" name="Webhook">
    <mxGraphModel dx="3976" dy="1843" grid="1" gridSize="10" guides="1" tooltips="1" connect="1" arrows="1" fold="1" page="1" pageScale="1" pageWidth="850" pageHeight="1100" math="0" shadow="0">
      <root>
        <mxCell id="0" />
        <mxCell id="1" parent="0" />
        <mxCell id="oWRKW3sVj76saq1zO_3e-1" value="AWS Cloud" style="points=[[0,0],[0.25,0],[0.5,0],[0.75,0],[1,0],[1,0.25],[1,0.5],[1,0.75],[1,1],[0.75,1],[0.5,1],[0.25,1],[0,1],[0,0.75],[0,0.5],[0,0.25]];outlineConnect=0;gradientColor=none;html=1;whiteSpace=wrap;fontSize=12;fontStyle=0;container=1;pointerEvents=0;collapsible=0;recursiveResize=0;shape=mxgraph.aws4.group;grIcon=mxgraph.aws4.group_aws_cloud_alt;strokeColor=#232F3E;fillColor=none;verticalAlign=top;align=left;spacingLeft=30;fontColor=#232F3E;dashed=0;" vertex="1" parent="1">
          <mxGeometry x="-2042" y="-940" width="924" height="613" as="geometry" />
        </mxCell>
        <mxCell id="oWRKW3sVj76saq1zO_3e-2" value="File Transfer Platform VPC" style="points=[[0,0],[0.25,0],[0.5,0],[0.75,0],[1,0],[1,0.25],[1,0.5],[1,0.75],[1,1],[0.75,1],[0.5,1],[0.25,1],[0,1],[0,0.75],[0,0.5],[0,0.25]];outlineConnect=0;gradientColor=none;html=1;whiteSpace=wrap;fontSize=12;fontStyle=0;container=1;pointerEvents=0;collapsible=0;recursiveResize=0;shape=mxgraph.aws4.group;grIcon=mxgraph.aws4.group_vpc2;strokeColor=#8C4FFF;fillColor=none;verticalAlign=top;align=left;spacingLeft=30;fontColor=#AAB7B8;dashed=0;" vertex="1" parent="oWRKW3sVj76saq1zO_3e-1">
          <mxGeometry x="37" y="39.5" width="850" height="552.5" as="geometry" />
        </mxCell>
        <mxCell id="oWRKW3sVj76saq1zO_3e-3" value="Application" style="points=[[0,0],[0.25,0],[0.5,0],[0.75,0],[1,0],[1,0.25],[1,0.5],[1,0.75],[1,1],[0.75,1],[0.5,1],[0.25,1],[0,1],[0,0.75],[0,0.5],[0,0.25]];outlineConnect=0;gradientColor=none;html=1;whiteSpace=wrap;fontSize=12;fontStyle=0;container=1;pointerEvents=0;collapsible=0;recursiveResize=0;shape=mxgraph.aws4.group;grIcon=mxgraph.aws4.group_on_premise;strokeColor=#7D8998;fillColor=none;verticalAlign=top;align=left;spacingLeft=30;fontColor=#5A6C86;dashed=0;" vertex="1" parent="oWRKW3sVj76saq1zO_3e-2">
          <mxGeometry x="-272" y="119.5" width="116" height="76" as="geometry" />
        </mxCell>
        <mxCell id="oWRKW3sVj76saq1zO_3e-4" value="" style="sketch=0;points=[[0,0,0],[0.25,0,0],[0.5,0,0],[0.75,0,0],[1,0,0],[0,1,0],[0.25,1,0],[0.5,1,0],[0.75,1,0],[1,1,0],[0,0.25,0],[0,0.5,0],[0,0.75,0],[1,0.25,0],[1,0.5,0],[1,0.75,0]];outlineConnect=0;fontColor=#232F3E;fillColor=#01A88D;strokeColor=#ffffff;dashed=0;verticalLabelPosition=bottom;verticalAlign=top;align=center;html=1;fontSize=12;fontStyle=0;aspect=fixed;shape=mxgraph.aws4.resourceIcon;resIcon=mxgraph.aws4.transfer_family;" vertex="1" parent="oWRKW3sVj76saq1zO_3e-2">
          <mxGeometry x="61" y="58.5" width="58" height="58" as="geometry" />
        </mxCell>
        <mxCell id="oWRKW3sVj76saq1zO_3e-5" value="" style="sketch=0;points=[[0,0,0],[0.25,0,0],[0.5,0,0],[0.75,0,0],[1,0,0],[0,1,0],[0.25,1,0],[0.5,1,0],[0.75,1,0],[1,1,0],[0,0.25,0],[0,0.5,0],[0,0.75,0],[1,0.25,0],[1,0.5,0],[1,0.75,0]];outlineConnect=0;fontColor=#232F3E;fillColor=#7AA116;strokeColor=#ffffff;dashed=0;verticalLabelPosition=bottom;verticalAlign=top;align=center;html=1;fontSize=12;fontStyle=0;aspect=fixed;shape=mxgraph.aws4.resourceIcon;resIcon=mxgraph.aws4.s3;" vertex="1" parent="oWRKW3sVj76saq1zO_3e-2">
          <mxGeometry x="61" y="198.5" width="58" height="58" as="geometry" />
        </mxCell>
        <mxCell id="oWRKW3sVj76saq1zO_3e-7" value="" style="sketch=0;points=[[0,0,0],[0.25,0,0],[0.5,0,0],[0.75,0,0],[1,0,0],[0,1,0],[0.25,1,0],[0.5,1,0],[0.75,1,0],[1,1,0],[0,0.25,0],[0,0.5,0],[0,0.75,0],[1,0.25,0],[1,0.5,0],[1,0.75,0]];outlineConnect=0;fontColor=#232F3E;fillColor=#ED7100;strokeColor=#ffffff;dashed=0;verticalLabelPosition=bottom;verticalAlign=top;align=center;html=1;fontSize=12;fontStyle=0;aspect=fixed;shape=mxgraph.aws4.resourceIcon;resIcon=mxgraph.aws4.lambda;" vertex="1" parent="oWRKW3sVj76saq1zO_3e-2">
          <mxGeometry x="480" y="58.5" width="58" height="58" as="geometry" />
        </mxCell>
        <mxCell id="oWRKW3sVj76saq1zO_3e-8" value="" style="sketch=0;points=[[0,0,0],[0.25,0,0],[0.5,0,0],[0.75,0,0],[1,0,0],[0,1,0],[0.25,1,0],[0.5,1,0],[0.75,1,0],[1,1,0],[0,0.25,0],[0,0.5,0],[0,0.75,0],[1,0.25,0],[1,0.5,0],[1,0.75,0]];outlineConnect=0;fontColor=#232F3E;fillColor=#DD344C;strokeColor=#ffffff;dashed=0;verticalLabelPosition=bottom;verticalAlign=top;align=center;html=1;fontSize=12;fontStyle=0;aspect=fixed;shape=mxgraph.aws4.resourceIcon;resIcon=mxgraph.aws4.cognito;" vertex="1" parent="oWRKW3sVj76saq1zO_3e-2">
          <mxGeometry x="647" y="58.5" width="58" height="58" as="geometry" />
        </mxCell>
        <mxCell id="oWRKW3sVj76saq1zO_3e-10" value="" style="sketch=0;points=[[0,0,0],[0.25,0,0],[0.5,0,0],[0.75,0,0],[1,0,0],[0,1,0],[0.25,1,0],[0.5,1,0],[0.75,1,0],[1,1,0],[0,0.25,0],[0,0.5,0],[0,0.75,0],[1,0.25,0],[1,0.5,0],[1,0.75,0]];outlineConnect=0;fontColor=#232F3E;fillColor=#ED7100;strokeColor=#ffffff;dashed=0;verticalLabelPosition=bottom;verticalAlign=top;align=center;html=1;fontSize=12;fontStyle=0;aspect=fixed;shape=mxgraph.aws4.resourceIcon;resIcon=mxgraph.aws4.lambda;" vertex="1" parent="oWRKW3sVj76saq1zO_3e-2">
          <mxGeometry x="313" y="388.5" width="58" height="58" as="geometry" />
        </mxCell>
        <mxCell id="oWRKW3sVj76saq1zO_3e-11" value="" style="sketch=0;points=[[0,0,0],[0.25,0,0],[0.5,0,0],[0.75,0,0],[1,0,0],[0,1,0],[0.25,1,0],[0.5,1,0],[0.75,1,0],[1,1,0],[0,0.25,0],[0,0.5,0],[0,0.75,0],[1,0.25,0],[1,0.5,0],[1,0.75,0]];points=[[0,0,0],[0.25,0,0],[0.5,0,0],[0.75,0,0],[1,0,0],[0,1,0],[0.25,1,0],[0.5,1,0],[0.75,1,0],[1,1,0],[0,0.25,0],[0,0.5,0],[0,0.75,0],[1,0.25,0],[1,0.5,0],[1,0.75,0]];outlineConnect=0;fontColor=#232F3E;fillColor=#E7157B;strokeColor=#ffffff;dashed=0;verticalLabelPosition=bottom;verticalAlign=top;align=center;html=1;fontSize=12;fontStyle=0;aspect=fixed;shape=mxgraph.aws4.resourceIcon;resIcon=mxgraph.aws4.cloudwatch_2;" vertex="1" parent="oWRKW3sVj76saq1zO_3e-2">
          <mxGeometry x="480" y="387.25" width="58" height="58" as="geometry" />
        </mxCell>
        <mxCell id="oWRKW3sVj76saq1zO_3e-12" value="" style="endArrow=classic;html=1;rounded=0;fontSize=12;startSize=8;endSize=8;curved=1;exitX=1;exitY=0.25;exitDx=0;exitDy=0;exitPerimeter=0;entryX=0;entryY=0.25;entryDx=0;entryDy=0;entryPerimeter=0;strokeColor=#0000FF;flowAnimation=1;dashed=1;dashPattern=8 8;" edge="1" parent="oWRKW3sVj76saq1zO_3e-2" source="oWRKW3sVj76saq1zO_3e-4" target="oWRKW3sVj76saq1zO_3e-7">
          <mxGeometry width="50" height="50" relative="1" as="geometry">
            <mxPoint x="-377" y="417.5" as="sourcePoint" />
            <mxPoint x="-327" y="367.5" as="targetPoint" />
          </mxGeometry>
        </mxCell>
        <mxCell id="oWRKW3sVj76saq1zO_3e-13" value="" style="endArrow=classic;html=1;rounded=0;fontSize=12;startSize=8;endSize=8;curved=1;exitX=1;exitY=0.5;exitDx=0;exitDy=0;exitPerimeter=0;entryX=0;entryY=0.5;entryDx=0;entryDy=0;entryPerimeter=0;strokeColor=#0000FF;dashed=1;dashPattern=8 8;flowAnimation=1;" edge="1" parent="oWRKW3sVj76saq1zO_3e-2" source="oWRKW3sVj76saq1zO_3e-7" target="oWRKW3sVj76saq1zO_3e-8">
          <mxGeometry width="50" height="50" relative="1" as="geometry">
            <mxPoint x="71" y="97.5" as="sourcePoint" />
            <mxPoint x="361" y="97.5" as="targetPoint" />
          </mxGeometry>
        </mxCell>
        <mxCell id="oWRKW3sVj76saq1zO_3e-14" value="" style="endArrow=classic;html=1;rounded=0;fontSize=12;startSize=8;endSize=8;curved=1;exitX=0;exitY=0.75;exitDx=0;exitDy=0;exitPerimeter=0;entryX=1;entryY=0.75;entryDx=0;entryDy=0;entryPerimeter=0;strokeColor=#0000FF;dashed=1;dashPattern=8 8;flowAnimation=1;" edge="1" parent="oWRKW3sVj76saq1zO_3e-2" source="oWRKW3sVj76saq1zO_3e-7" target="oWRKW3sVj76saq1zO_3e-4">
          <mxGeometry width="50" height="50" relative="1" as="geometry">
            <mxPoint x="129" y="83.5" as="sourcePoint" />
            <mxPoint x="419" y="83.5" as="targetPoint" />
          </mxGeometry>
        </mxCell>
        <mxCell id="oWRKW3sVj76saq1zO_3e-15" value="" style="endArrow=classic;html=1;rounded=0;fontSize=12;startSize=8;endSize=8;curved=1;exitX=0.5;exitY=1;exitDx=0;exitDy=0;exitPerimeter=0;entryX=0.5;entryY=0;entryDx=0;entryDy=0;entryPerimeter=0;strokeColor=#0000FF;dashed=1;dashPattern=8 8;flowAnimation=1;" edge="1" parent="oWRKW3sVj76saq1zO_3e-2" source="oWRKW3sVj76saq1zO_3e-4" target="oWRKW3sVj76saq1zO_3e-5">
          <mxGeometry width="50" height="50" relative="1" as="geometry">
            <mxPoint x="419" y="112.5" as="sourcePoint" />
            <mxPoint x="129" y="112.5" as="targetPoint" />
          </mxGeometry>
        </mxCell>
        <mxCell id="oWRKW3sVj76saq1zO_3e-16" value="" style="endArrow=classic;html=1;rounded=0;fontSize=12;startSize=8;endSize=8;curved=1;exitX=1;exitY=0.25;exitDx=0;exitDy=0;exitPerimeter=0;entryX=0;entryY=0.25;entryDx=0;entryDy=0;entryPerimeter=0;strokeColor=#0000FF;dashed=1;dashPattern=8 8;flowAnimation=1;" edge="1" parent="oWRKW3sVj76saq1zO_3e-2" source="oWRKW3sVj76saq1zO_3e-5">
          <mxGeometry width="50" height="50" relative="1" as="geometry">
            <mxPoint x="100" y="126.5" as="sourcePoint" />
            <mxPoint x="313" y="213" as="targetPoint" />
          </mxGeometry>
        </mxCell>
        <mxCell id="oWRKW3sVj76saq1zO_3e-17" value="" style="endArrow=classic;html=1;rounded=0;fontSize=12;startSize=8;endSize=8;curved=1;exitX=0;exitY=0.75;exitDx=0;exitDy=0;exitPerimeter=0;entryX=1;entryY=0.75;entryDx=0;entryDy=0;entryPerimeter=0;strokeColor=#0000FF;dashed=1;dashPattern=8 8;flowAnimation=1;" edge="1" parent="oWRKW3sVj76saq1zO_3e-2" target="oWRKW3sVj76saq1zO_3e-5">
          <mxGeometry width="50" height="50" relative="1" as="geometry">
            <mxPoint x="313" y="242" as="sourcePoint" />
            <mxPoint x="419" y="223.5" as="targetPoint" />
          </mxGeometry>
        </mxCell>
        <mxCell id="oWRKW3sVj76saq1zO_3e-19" style="edgeStyle=none;curved=1;rounded=0;orthogonalLoop=1;jettySize=auto;html=1;entryX=0.5;entryY=0;entryDx=0;entryDy=0;entryPerimeter=0;fontSize=12;startSize=8;endSize=8;strokeColor=#0000FF;exitX=0.5;exitY=1;exitDx=0;exitDy=0;exitPerimeter=0;dashed=1;dashPattern=8 8;flowAnimation=1;" edge="1" parent="oWRKW3sVj76saq1zO_3e-2" source="oWRKW3sVj76saq1zO_3e-54" target="oWRKW3sVj76saq1zO_3e-10">
          <mxGeometry relative="1" as="geometry">
            <mxPoint x="342" y="351.5" as="sourcePoint" />
            <mxPoint x="435" y="388.5" as="targetPoint" />
          </mxGeometry>
        </mxCell>
        <mxCell id="oWRKW3sVj76saq1zO_3e-21" value="" style="endArrow=classic;html=1;rounded=0;fontSize=12;startSize=8;endSize=8;exitX=0.5;exitY=0;exitDx=0;exitDy=0;entryX=0;entryY=0.5;entryDx=0;entryDy=0;entryPerimeter=0;edgeStyle=orthogonalEdgeStyle;dashed=1;dashPattern=8 8;strokeColor=#0000FF;strokeWidth=1;flowAnimation=1;curved=0;" edge="1" parent="oWRKW3sVj76saq1zO_3e-2" source="oWRKW3sVj76saq1zO_3e-3" target="oWRKW3sVj76saq1zO_3e-4">
          <mxGeometry width="50" height="50" relative="1" as="geometry">
            <mxPoint x="-242" y="68.5" as="sourcePoint" />
            <mxPoint x="-192" y="18.5" as="targetPoint" />
          </mxGeometry>
        </mxCell>
        <mxCell id="oWRKW3sVj76saq1zO_3e-22" value="" style="endArrow=classic;html=1;rounded=0;fontSize=12;startSize=8;endSize=8;entryX=0;entryY=0.5;entryDx=0;entryDy=0;entryPerimeter=0;dashed=1;endFill=1;flowAnimation=1;exitX=1;exitY=0.5;exitDx=0;exitDy=0;exitPerimeter=0;edgeStyle=orthogonalEdgeStyle;dashPattern=1 4;" edge="1" parent="oWRKW3sVj76saq1zO_3e-2" source="oWRKW3sVj76saq1zO_3e-10" target="oWRKW3sVj76saq1zO_3e-11">
          <mxGeometry width="50" height="50" relative="1" as="geometry">
            <mxPoint x="375" y="417.5" as="sourcePoint" />
            <mxPoint x="-190" y="280.5" as="targetPoint" />
          </mxGeometry>
        </mxCell>
        <mxCell id="oWRKW3sVj76saq1zO_3e-23" value="" style="endArrow=classic;html=1;rounded=0;fontSize=12;startSize=8;endSize=8;curved=1;exitX=0.5;exitY=1;exitDx=0;exitDy=0;exitPerimeter=0;entryX=0.5;entryY=0;entryDx=0;entryDy=0;entryPerimeter=0;dashed=1;dashPattern=1 4;endFill=1;flowAnimation=1;" edge="1" parent="oWRKW3sVj76saq1zO_3e-2" source="oWRKW3sVj76saq1zO_3e-7" target="oWRKW3sVj76saq1zO_3e-11">
          <mxGeometry width="50" height="50" relative="1" as="geometry">
            <mxPoint x="686" y="227.5" as="sourcePoint" />
            <mxPoint x="736" y="177.5" as="targetPoint" />
          </mxGeometry>
        </mxCell>
        <mxCell id="oWRKW3sVj76saq1zO_3e-24" value="&lt;b&gt;&lt;font style=&quot;font-size: 12px;&quot;&gt;Transfer family&lt;/font&gt;&lt;/b&gt;" style="text;html=1;align=center;verticalAlign=middle;whiteSpace=wrap;rounded=0;fontSize=16;" vertex="1" parent="oWRKW3sVj76saq1zO_3e-2">
          <mxGeometry x="31" y="28.5" width="118" height="30" as="geometry" />
        </mxCell>
        <mxCell id="oWRKW3sVj76saq1zO_3e-25" value="&lt;span style=&quot;font-size: 12px;&quot;&gt;&lt;font style=&quot;font-size: 12px;&quot;&gt;&lt;b&gt;Lambda&lt;/b&gt;&lt;/font&gt;&lt;/span&gt;&lt;div style=&quot;font-size: 12px;&quot;&gt;&lt;font style=&quot;font-size: 12px;&quot;&gt;&lt;b&gt;Authenticator&lt;/b&gt;&lt;/font&gt;&lt;/div&gt;" style="text;html=1;align=center;verticalAlign=middle;whiteSpace=wrap;rounded=0;fontSize=16;" vertex="1" parent="oWRKW3sVj76saq1zO_3e-2">
          <mxGeometry x="447.5" y="112.5" width="123" height="39" as="geometry" />
        </mxCell>
        <mxCell id="oWRKW3sVj76saq1zO_3e-26" value="&lt;b&gt;&lt;font style=&quot;font-size: 12px;&quot;&gt;Cognito pool&lt;/font&gt;&lt;/b&gt;" style="text;html=1;align=center;verticalAlign=middle;whiteSpace=wrap;rounded=0;fontSize=16;" vertex="1" parent="oWRKW3sVj76saq1zO_3e-2">
          <mxGeometry x="636.5" y="116.5" width="79" height="30" as="geometry" />
        </mxCell>
        <mxCell id="oWRKW3sVj76saq1zO_3e-27" value="Origin Bucket" style="text;html=1;align=center;verticalAlign=middle;whiteSpace=wrap;rounded=0;fontSize=12;fontStyle=1" vertex="1" parent="oWRKW3sVj76saq1zO_3e-2">
          <mxGeometry x="61" y="256.5" width="60" height="30" as="geometry" />
        </mxCell>
        <mxCell id="oWRKW3sVj76saq1zO_3e-30" value="&lt;b&gt;&lt;font style=&quot;font-size: 12px;&quot;&gt;Webhook Jobs&lt;/font&gt;&lt;/b&gt;" style="text;html=1;align=center;verticalAlign=middle;whiteSpace=wrap;rounded=0;fontSize=16;" vertex="1" parent="oWRKW3sVj76saq1zO_3e-2">
          <mxGeometry x="296.63" y="452.25" width="90.75" height="22" as="geometry" />
        </mxCell>
        <mxCell id="oWRKW3sVj76saq1zO_3e-31" value="&lt;b&gt;&lt;font style=&quot;font-size: 12px;&quot;&gt;CloudWatch&lt;/font&gt;&lt;/b&gt;" style="text;html=1;align=center;verticalAlign=middle;whiteSpace=wrap;rounded=0;fontSize=16;" vertex="1" parent="oWRKW3sVj76saq1zO_3e-2">
          <mxGeometry x="468" y="448.25" width="82" height="30" as="geometry" />
        </mxCell>
        <mxCell id="oWRKW3sVj76saq1zO_3e-33" value="&lt;div style=&quot;font-size: 12px;&quot;&gt;&lt;b&gt;&lt;font style=&quot;font-size: 12px;&quot;&gt;Notes&lt;/font&gt;&lt;/b&gt;&lt;/div&gt;&lt;div style=&quot;font-size: 12px;&quot;&gt;&lt;b&gt;&lt;font style=&quot;font-size: 12px;&quot;&gt;&lt;br&gt;&lt;/font&gt;&lt;/b&gt;&lt;/div&gt;&lt;div style=&quot;font-size: 12px;&quot;&gt;&lt;div&gt;&lt;b&gt;5.&amp;nbsp;&lt;/b&gt;Push file to S3 with defined filename&lt;/div&gt;&lt;div&gt;&lt;b&gt;6.&amp;nbsp;&lt;/b&gt;&lt;/div&gt;&lt;div&gt;&lt;b&gt;7.&lt;/b&gt; GuardDuty tags the object with the scan result&lt;/div&gt;&lt;div&gt;&lt;b&gt;8.&lt;/b&gt;&amp;nbsp;Event Bridge waits for the GuardDuty result&lt;/div&gt;&lt;div&gt;&lt;b&gt;9.&lt;/b&gt;&amp;nbsp;Event Bridge triggers the Security Job to check the object tag from GuardDuty&lt;/div&gt;&lt;div&gt;&lt;b&gt;10.&lt;/b&gt; Security Job moves the object to the quarantine bucket if malware is found&lt;/div&gt;&lt;div&gt;&lt;b&gt;11.&lt;/b&gt; Security Job logs to CloudWatch&lt;/div&gt;&lt;div&gt;&lt;b&gt;12.&lt;/b&gt; Security Job sends an email to notify the security team when malware is found&lt;/div&gt;&lt;/div&gt;" style="text;html=1;align=left;verticalAlign=middle;whiteSpace=wrap;rounded=0;fontSize=16;" vertex="1" parent="oWRKW3sVj76saq1zO_3e-2">
          <mxGeometry x="634" y="280" width="216" height="272.5" as="geometry" />
        </mxCell>
        <mxCell id="oWRKW3sVj76saq1zO_3e-37" value="2" style="text;html=1;align=center;verticalAlign=middle;whiteSpace=wrap;rounded=0;fontSize=16;fillColor=#ffff88;strokeColor=#36393d;" vertex="1" parent="oWRKW3sVj76saq1zO_3e-2">
          <mxGeometry x="269" y="54.5" width="19" height="18" as="geometry" />
        </mxCell>
        <mxCell id="oWRKW3sVj76saq1zO_3e-38" value="3" style="text;html=1;align=center;verticalAlign=middle;whiteSpace=wrap;rounded=0;fontSize=16;fillColor=#ffff88;strokeColor=#36393d;" vertex="1" parent="oWRKW3sVj76saq1zO_3e-2">
          <mxGeometry x="583" y="69.5" width="19" height="18" as="geometry" />
        </mxCell>
        <mxCell id="oWRKW3sVj76saq1zO_3e-39" value="4" style="text;html=1;align=center;verticalAlign=middle;whiteSpace=wrap;rounded=0;fontSize=16;fillColor=#ffff88;strokeColor=#36393d;" vertex="1" parent="oWRKW3sVj76saq1zO_3e-2">
          <mxGeometry x="269" y="84.5" width="19" height="18" as="geometry" />
        </mxCell>
        <mxCell id="oWRKW3sVj76saq1zO_3e-40" value="5" style="text;html=1;align=center;verticalAlign=middle;whiteSpace=wrap;rounded=0;fontSize=16;fillColor=#ffff88;strokeColor=#36393d;" vertex="1" parent="oWRKW3sVj76saq1zO_3e-2">
          <mxGeometry x="92" y="148.5" width="19" height="18" as="geometry" />
        </mxCell>
        <mxCell id="oWRKW3sVj76saq1zO_3e-41" value="4b" style="text;html=1;align=center;verticalAlign=middle;whiteSpace=wrap;rounded=0;fontSize=16;fillColor=#ffff88;strokeColor=#36393d;" vertex="1" parent="oWRKW3sVj76saq1zO_3e-2">
          <mxGeometry x="509" y="198.5" width="19" height="18" as="geometry" />
        </mxCell>
        <mxCell id="oWRKW3sVj76saq1zO_3e-42" value="6" style="text;html=1;align=center;verticalAlign=middle;whiteSpace=wrap;rounded=0;fontSize=16;fillColor=#ffff88;strokeColor=#36393d;" vertex="1" parent="oWRKW3sVj76saq1zO_3e-2">
          <mxGeometry x="207" y="191" width="19" height="18" as="geometry" />
        </mxCell>
        <mxCell id="oWRKW3sVj76saq1zO_3e-43" value="7" style="text;html=1;align=center;verticalAlign=middle;whiteSpace=wrap;rounded=0;fontSize=16;fillColor=#ffff88;strokeColor=#36393d;" vertex="1" parent="oWRKW3sVj76saq1zO_3e-2">
          <mxGeometry x="207" y="221.5" width="19" height="18" as="geometry" />
        </mxCell>
        <mxCell id="oWRKW3sVj76saq1zO_3e-45" value="8" style="text;html=1;align=center;verticalAlign=middle;whiteSpace=wrap;rounded=0;fontSize=16;fillColor=#ffff88;strokeColor=#36393d;" vertex="1" parent="oWRKW3sVj76saq1zO_3e-2">
          <mxGeometry x="354" y="360.5" width="19" height="18" as="geometry" />
        </mxCell>
        <mxCell id="oWRKW3sVj76saq1zO_3e-47" value="9" style="text;html=1;align=center;verticalAlign=middle;whiteSpace=wrap;rounded=0;fontSize=16;fillColor=#ffff88;strokeColor=#36393d;" vertex="1" parent="oWRKW3sVj76saq1zO_3e-2">
          <mxGeometry x="475" y="360.5" width="19" height="18" as="geometry" />
        </mxCell>
        <mxCell id="oWRKW3sVj76saq1zO_3e-54" value="" style="sketch=0;points=[[0,0,0],[0.25,0,0],[0.5,0,0],[0.75,0,0],[1,0,0],[0,1,0],[0.25,1,0],[0.5,1,0],[0.75,1,0],[1,1,0],[0,0.25,0],[0,0.5,0],[0,0.75,0],[1,0.25,0],[1,0.5,0],[1,0.75,0]];outlineConnect=0;fontColor=#232F3E;fillColor=#E7157B;strokeColor=#ffffff;dashed=0;verticalLabelPosition=bottom;verticalAlign=top;align=center;html=1;fontSize=12;fontStyle=0;aspect=fixed;shape=mxgraph.aws4.resourceIcon;resIcon=mxgraph.aws4.eventbridge;" vertex="1" parent="oWRKW3sVj76saq1zO_3e-2">
          <mxGeometry x="313" y="195.5" width="58" height="58" as="geometry" />
        </mxCell>
        <mxCell id="oWRKW3sVj76saq1zO_3e-55" value="&lt;b&gt;&lt;font style=&quot;font-size: 12px;&quot;&gt;Event Bridge&lt;/font&gt;&lt;/b&gt;" style="text;html=1;align=center;verticalAlign=middle;whiteSpace=wrap;rounded=0;fontSize=16;" vertex="1" parent="oWRKW3sVj76saq1zO_3e-2">
          <mxGeometry x="375" y="209" width="78" height="23.5" as="geometry" />
        </mxCell>
        <mxCell id="oWRKW3sVj76saq1zO_3e-50" value="&lt;b style=&quot;font-size: 12px;&quot;&gt;&lt;font style=&quot;font-size: 12px;&quot;&gt;UserName/Password&lt;/font&gt;&lt;/b&gt;&lt;div style=&quot;font-size: 12px;&quot;&gt;&lt;b style=&quot;&quot;&gt;&lt;font style=&quot;font-size: 12px;&quot;&gt;UserName/Key&lt;/font&gt;&lt;/b&gt;&lt;/div&gt;" style="text;html=1;align=center;verticalAlign=middle;whiteSpace=wrap;rounded=0;fontSize=16;" vertex="1" parent="1">
          <mxGeometry x="-2273" y="-854" width="123" height="39" as="geometry" />
        </mxCell>
        <mxCell id="oWRKW3sVj76saq1zO_3e-52" value="1" style="text;html=1;align=center;verticalAlign=middle;whiteSpace=wrap;rounded=0;fontSize=16;fillColor=#ffff88;strokeColor=#36393d;" vertex="1" parent="1">
          <mxGeometry x="-2130" y="-833" width="19" height="18" as="geometry" />
        </mxCell>
        <mxCell id="KptniNWFsyc79C0efsyn-1" value="&lt;div style=&quot;font-size: 12px;&quot;&gt;&lt;b style=&quot;&quot;&gt;&lt;font style=&quot;font-size: 12px;&quot;&gt;Notes&lt;/font&gt;&lt;/b&gt;&lt;/div&gt;&lt;div style=&quot;font-size: 12px;&quot;&gt;&lt;b&gt;&lt;font style=&quot;font-size: 12px;&quot;&gt;&lt;br&gt;&lt;/font&gt;&lt;/b&gt;&lt;/div&gt;&lt;div style=&quot;font-size: 12px;&quot;&gt;&lt;font style=&quot;font-size: 12px;&quot;&gt;&lt;b&gt;1. &lt;/b&gt;App provide username&amp;amp;password or username&amp;amp;key&lt;/font&gt;&lt;/div&gt;&lt;div style=&quot;font-size: 12px;&quot;&gt;&lt;font style=&quot;font-size: 12px;&quot;&gt;&lt;b&gt;2.&lt;/b&gt;&amp;nbsp;Trigger Authenticator Lambda&lt;/font&gt;&lt;/div&gt;&lt;div style=&quot;font-size: 12px;&quot;&gt;&lt;font style=&quot;font-size: 12px;&quot;&gt;&lt;b&gt;3. &lt;/b&gt;Validate with Cognito&lt;/font&gt;&lt;/div&gt;&lt;div style=&quot;font-size: 12px;&quot;&gt;&lt;font style=&quot;font-size: 12px;&quot;&gt;&lt;b&gt;4. &lt;/b&gt;Return OK to SFTP Server&lt;/font&gt;&lt;/div&gt;&lt;div style=&quot;font-size: 12px;&quot;&gt;&lt;font style=&quot;font-size: 12px;&quot;&gt;&lt;b style=&quot;&quot;&gt;4b. &lt;/b&gt;Log to CloudWatch if login failed&lt;/font&gt;&lt;/div&gt;&lt;div style=&quot;font-size: 12px;&quot;&gt;&lt;b&gt;5.&lt;/b&gt;&amp;nbsp;Store files in S3 Origin bucket&amp;nbsp;&lt;/div&gt;" style="text;html=1;align=left;verticalAlign=middle;whiteSpace=wrap;rounded=0;fontSize=16;" vertex="1" parent="1">
          <mxGeometry x="-2273" y="-465" width="216" height="138" as="geometry" />
        </mxCell>
      </root>
    </mxGraphModel>
  </diagram>
</mxfile>
